<?xml version="1.0" encoding="iso-8859-1"?>
<!-- Generator: Adobe Illustrator 19.0.0, SVG Export Plug-In . SVG Version: 6.00 Build 0)  -->
<svg version="1.1" id="Layer_1" xmlns="http://www.w3.org/2000/svg" xmlns:xlink="http://www.w3.org/1999/xlink" x="0px" y="0px"
	 viewBox="0 0 512 512" style="enable-background:new 0 0 512 512;" xml:space="preserve">
<circle style="fill:#273B7A;" cx="256" cy="256" r="256"/>
<path style="fill:#121149;" d="M511.74,267.28L396.824,150.966l-32.825,34.688l-25.903-25.903l-231.034,64.89l84.797,88.102
	l-84.797,78.105l16.975,14.696l-5.853,4.965l98.485,98.485C229.49,510.971,242.624,512,256,512
	C393.604,512,505.834,403.428,511.74,267.28z"/>
<g>
	<rect x="118.191" y="220.557" style="fill:#FFFFFF;" width="12.798" height="118.882"/>
	<rect x="381.018" y="220.557" style="fill:#FFFFFF;" width="12.798" height="118.882"/>
</g>
<path style="fill:#FEE187;" d="M393.494,190.993H171.765c-2.136,0-3.867-1.731-3.867-3.867V152.9c0-2.136,1.731-3.867,3.867-3.867
	h221.729c2.136,0,3.867,1.731,3.867,3.867v34.226C397.36,189.262,395.629,190.993,393.494,190.993z"/>
<path style="fill:#FFC61B;" d="M393.494,149.033H255.426v41.96h138.068c2.136,0,3.867-1.731,3.867-3.867V152.9
	C397.36,150.764,395.629,149.033,393.494,149.033z"/>
<path style="fill:#FFEDB5;" d="M192.712,181.377h-74.206c-2.136,0-3.867-1.731-3.867-3.867v-34.226c0-2.136,1.731-3.867,3.867-3.867
	h74.206c2.136,0,3.867,1.731,3.867,3.867v34.226C196.58,179.646,194.848,181.377,192.712,181.377z"/>
<path style="fill:#E09112;" d="M401.28,226.042H110.72c-3.072,0-5.561-2.489-5.561-5.561v-49.214c0-3.072,2.489-5.561,5.561-5.561
	H401.28c3.072,0,5.561,2.489,5.561,5.561v49.214C406.842,223.553,404.352,226.042,401.28,226.042z"/>
<path style="fill:#FF5419;" d="M401.28,165.705H255.426v60.337H401.28c3.07,0,5.561-2.489,5.561-5.561v-49.214
	C406.842,168.195,404.352,165.705,401.28,165.705z"/>
<g>
	<rect x="118.191" y="386.741" style="fill:#FFFFFF;" width="12.798" height="23.769"/>
	<rect x="381.018" y="386.741" style="fill:#FFFFFF;" width="12.798" height="23.769"/>
</g>
<path style="fill:#FEE187;" d="M393.494,358.571H171.765c-2.136,0-3.867-1.731-3.867-3.867v-34.226c0-2.136,1.731-3.867,3.867-3.867
	h221.729c2.136,0,3.867,1.731,3.867,3.867v34.226C397.36,356.838,395.629,358.571,393.494,358.571z"/>
<path style="fill:#FFC61B;" d="M393.494,316.609H255.426v41.96h138.068c2.136,0,3.867-1.731,3.867-3.867v-34.226
	C397.36,318.342,395.629,316.609,393.494,316.609z"/>
<path style="fill:#FFEDB5;" d="M192.712,348.955h-74.206c-2.136,0-3.867-1.731-3.867-3.867v-34.226c0-2.136,1.731-3.867,3.867-3.867
	h74.206c2.136,0,3.867,1.731,3.867,3.867v34.226C196.58,347.222,194.848,348.955,192.712,348.955z"/>
<path style="fill:#E09112;" d="M401.28,392.225H110.72c-3.072,0-5.561-2.489-5.561-5.561v-49.214c0-3.072,2.489-5.561,5.561-5.561
	H401.28c3.072,0,5.561,2.489,5.561,5.561v49.214C406.842,389.735,404.352,392.225,401.28,392.225z"/>
<path style="fill:#FF5419;" d="M401.28,331.888H255.426v60.337H401.28c3.07,0,5.561-2.489,5.561-5.561v-49.214
	C406.842,334.377,404.352,331.888,401.28,331.888z"/>
<g>
</g>
<g>
</g>
<g>
</g>
<g>
</g>
<g>
</g>
<g>
</g>
<g>
</g>
<g>
</g>
<g>
</g>
<g>
</g>
<g>
</g>
<g>
</g>
<g>
</g>
<g>
</g>
<g>
</g>
</svg>
