<?xml version="1.0" encoding="iso-8859-1"?>
<!-- Generator: Adobe Illustrator 19.0.0, SVG Export Plug-In . SVG Version: 6.00 Build 0)  -->
<svg version="1.1" id="Layer_1" xmlns="http://www.w3.org/2000/svg" xmlns:xlink="http://www.w3.org/1999/xlink" x="0px" y="0px"
	 viewBox="0 0 512 512" style="enable-background:new 0 0 512 512;" xml:space="preserve">
<circle style="fill:#386895;" cx="256" cy="256" r="256"/>
<path style="fill:#273B7A;" d="M303.926,507.502c116.217-22.014,204.641-122.565,207.97-244.381L352.539,103.764L294.96,208.148
	l-7.621-7.621l-127.878,79.446l46.906,50.981l-4.884,5.137l59.976,63.317l-50.369,15.258L303.926,507.502z"/>
<path style="fill:#FFEDB5;" d="M294.536,402.491h-30.779V256.098c0-4.284-3.474-7.758-7.758-7.758c-4.284,0-7.758,3.474-7.758,7.758
	v146.392h-30.779c-4.284,0-7.758,3.474-7.758,7.758s3.474,7.758,7.758,7.758h77.074c4.284,0,7.758-3.474,7.758-7.758
	S298.822,402.491,294.536,402.491z"/>
<path style="fill:#FEE187;" d="M294.536,402.491h-30.779V256.098c0-4.284-3.474-7.758-7.758-7.758v169.665h38.536
	c4.284,0,7.758-3.474,7.758-7.758S298.822,402.491,294.536,402.491z"/>
<path style="fill:#FFEDB5;" d="M204.616,337.484c-2.381,0-4.31-1.929-4.31-4.31v-77.076c0-2.381,1.929-4.31,4.31-4.31
	s4.31,1.929,4.31,4.31v77.076C208.925,335.553,206.996,337.484,204.616,337.484z"/>
<rect x="159.461" y="103.762" style="fill:#FFC61B;" width="193.077" height="176.218"/>
<rect x="256" y="103.762" style="fill:#EAA22F;" width="96.539" height="176.218"/>
<g>
</g>
<g>
</g>
<g>
</g>
<g>
</g>
<g>
</g>
<g>
</g>
<g>
</g>
<g>
</g>
<g>
</g>
<g>
</g>
<g>
</g>
<g>
</g>
<g>
</g>
<g>
</g>
<g>
</g>
</svg>
