<?xml version="1.0" encoding="iso-8859-1"?>
<!-- Generator: Adobe Illustrator 19.0.0, SVG Export Plug-In . SVG Version: 6.00 Build 0)  -->
<svg version="1.1" id="Layer_1" xmlns="http://www.w3.org/2000/svg" xmlns:xlink="http://www.w3.org/1999/xlink" x="0px" y="0px"
	 viewBox="0 0 512 512" style="enable-background:new 0 0 512 512;" xml:space="preserve">
<circle style="fill:#FF7F4F;" cx="256" cy="256" r="256"/>
<path style="fill:#D35933;" d="M512,256c0-8.245-0.405-16.394-1.167-24.44L407.704,128.431l-98.014,166.317l30.415,30.417
	l-235.808,68.748l115.533,115.531C231.648,511.116,243.721,512,256,512C397.384,512,512,397.384,512,256z"/>
<rect x="104.296" y="128.431" style="fill:#FFEDB5;" width="176.993" height="265.481"/>
<rect x="256" y="128.431" style="fill:#FEE187;" width="151.704" height="265.481"/>
<g>
	<path style="fill:#B54324;" d="M180.148,195.741c-16.203,0-29.384-13.181-29.384-29.384s13.181-29.384,29.384-29.384
		s29.384,13.181,29.384,29.384S196.351,195.741,180.148,195.741z M180.148,145.172c-11.681,0-21.185,9.504-21.185,21.185
		c0,11.681,9.504,21.185,21.185,21.185s21.185-9.504,21.185-21.185C201.333,154.676,191.829,145.172,180.148,145.172z"/>
	<path style="fill:#B54324;" d="M331.852,195.741c-16.203,0-29.384-13.181-29.384-29.384s13.181-29.384,29.384-29.384
		c16.203,0,29.384,13.181,29.384,29.384S348.055,195.741,331.852,195.741z M331.852,145.172c-11.681,0-21.185,9.504-21.185,21.185
		c0,11.681,9.504,21.185,21.185,21.185s21.185-9.504,21.185-21.185C353.037,154.676,343.533,145.172,331.852,145.172z"/>
	<path style="fill:#B54324;" d="M230.715,285.767c-2.265,0-4.099-1.836-4.099-4.099V223.31c0-7.385-6.01-13.395-13.395-13.395
		h-66.146c-7.385,0-13.395,6.01-13.395,13.395v58.358c0,2.265-1.836,4.099-4.099,4.099c-2.263,0-4.099-1.836-4.099-4.099V223.31
		c0-11.909,9.687-21.594,21.594-21.594h66.146c11.909,0,21.594,9.687,21.594,21.594v58.358
		C234.815,283.932,232.981,285.767,230.715,285.767z"/>
	<path style="fill:#B54324;" d="M205.433,372.727c-2.265,0-4.099-1.836-4.099-4.099V242.209c0-2.265,1.836-4.099,4.099-4.099
		c2.263,0,4.099,1.836,4.099,4.099v126.419C209.532,370.893,207.698,372.727,205.433,372.727z"/>
	<path style="fill:#B54324;" d="M154.864,372.727c-2.265,0-4.099-1.836-4.099-4.099V242.209c0-2.265,1.836-4.099,4.099-4.099
		c2.263,0,4.099,1.836,4.099,4.099v126.419C158.963,370.893,157.129,372.727,154.864,372.727z"/>
	<path style="fill:#B54324;" d="M347.941,372.727c-2.265,0-4.099-1.836-4.099-4.099v-75.852c0-2.265,1.836-4.099,4.099-4.099
		c2.265,0,4.099,1.836,4.099,4.099v75.852C352.042,370.893,350.206,372.727,347.941,372.727z"/>
	<path style="fill:#B54324;" d="M315.763,372.727c-2.265,0-4.099-1.836-4.099-4.099v-75.852c0-2.265,1.836-4.099,4.099-4.099
		c2.265,0,4.099,1.836,4.099,4.099v75.852C319.862,370.893,318.026,372.727,315.763,372.727z"/>
	<path style="fill:#B54324;" d="M382.423,310.668c-1.503,0-2.951-0.831-3.67-2.269l-25.283-50.567
		c-0.283-0.571-0.433-1.198-0.433-1.834v-39.331c0-3.936-3.201-7.137-7.139-7.137h-28.093c-3.937,0-7.139,3.201-7.139,7.137V256
		c0,0.636-0.148,1.264-0.433,1.834l-25.283,50.567c-1.015,2.026-3.477,2.846-5.501,1.834c-2.024-1.014-2.846-3.475-1.834-5.501
		l24.85-49.7v-38.364c0-8.456,6.88-15.338,15.339-15.338h28.093c8.457,0,15.339,6.88,15.339,15.338v38.364l24.85,49.7
		c1.012,2.026,0.191,4.487-1.834,5.501C383.664,310.529,383.04,310.668,382.423,310.668z"/>
</g>
<g>
</g>
<g>
</g>
<g>
</g>
<g>
</g>
<g>
</g>
<g>
</g>
<g>
</g>
<g>
</g>
<g>
</g>
<g>
</g>
<g>
</g>
<g>
</g>
<g>
</g>
<g>
</g>
<g>
</g>
</svg>
