<?xml version="1.0" encoding="iso-8859-1"?>
<!-- Generator: Adobe Illustrator 19.0.0, SVG Export Plug-In . SVG Version: 6.00 Build 0)  -->
<svg version="1.1" id="Layer_1" xmlns="http://www.w3.org/2000/svg" xmlns:xlink="http://www.w3.org/1999/xlink" x="0px" y="0px"
	 viewBox="0 0 512 512" style="enable-background:new 0 0 512 512;" xml:space="preserve">
<circle style="fill:#71E2EF;" cx="256" cy="256" r="256"/>
<path style="fill:#38C6D9;" d="M512,256c0-1.557-0.031-3.106-0.059-4.656L373.889,114.526l-31.129,47.799l14.041,14.041
	l-218.7,221.084l114.507,114.507c1.131,0.016,2.258,0.043,3.393,0.043C397.384,512,512,397.384,512,256z"/>
<path style="fill:#386895;" d="M148.109,401.842h215.781c7.535,0,13.645-6.11,13.645-13.645V123.802
	c0-7.535-6.11-13.645-13.645-13.645H148.109c-7.535,0-13.645,6.11-13.645,13.645v264.395
	C134.465,395.733,140.574,401.842,148.109,401.842z"/>
<g>
	<path style="fill:#273B7A;" d="M363.891,110.158H254.852v291.685h109.039c7.535,0,13.645-6.11,13.645-13.645V123.802
		C377.535,116.267,371.426,110.158,363.891,110.158z"/>
	<path style="fill:#273B7A;" d="M377.535,123.802c0-7.537-6.11-13.645-13.645-13.645H148.109c-7.535,0-13.645,6.11-13.645,13.645
		v45.049h243.071V123.802z"/>
</g>
<path style="fill:#121149;" d="M377.535,123.802c0-7.537-6.11-13.645-13.645-13.645H254.852v58.696h122.683V123.802z"/>
<circle style="fill:#273B7A;" cx="256" cy="272.963" r="77.731"/>
<path style="fill:#121149;" d="M256,195.232c-0.384,0-0.765,0.024-1.148,0.029v155.395c0.384,0.005,0.764,0.029,1.148,0.029
	c42.927,0,77.726-34.799,77.726-77.726C333.726,230.031,298.927,195.232,256,195.232z"/>
<circle style="fill:#FFFFFF;" cx="256" cy="272.963" r="60.337"/>
<path style="fill:#D0D1D3;" d="M256,212.621c-0.384,0-0.765,0.022-1.148,0.029v120.615c0.383,0.007,0.764,0.029,1.148,0.029
	c33.323,0,60.337-27.014,60.337-60.337S289.323,212.621,256,212.621z"/>
<circle style="fill:#FFFFFF;" cx="338.903" cy="141.067" r="12.248"/>
<circle style="fill:#D0D1D3;" cx="305.942" cy="141.067" r="12.248"/>
<g>
</g>
<g>
</g>
<g>
</g>
<g>
</g>
<g>
</g>
<g>
</g>
<g>
</g>
<g>
</g>
<g>
</g>
<g>
</g>
<g>
</g>
<g>
</g>
<g>
</g>
<g>
</g>
<g>
</g>
</svg>
